HIERARCHY
ROOT Hips
{
	OFFSET	0.000000	0.000000	0.000000
	CHANNELS 6 Xposition Yposition Zposition Zrotation Xrotation Yrotation
	JOINT LeftUpLeg
	{
		OFFSET	12.811937	-7.635976	0.557276
		CHANNELS 3 Zrotation Xrotation Yrotation
		JOINT LeftLeg
		{
			OFFSET	-0.429270	-42.206159	-1.204951
			CHANNELS 3 Zrotation Xrotation Yrotation
			JOINT LeftFoot
			{
				OFFSET	-2.112259	-42.464481	-3.973220
				CHANNELS 3 Zrotation Xrotation Yrotation
				JOINT LeftFootHeel
				{
					OFFSET	0.387196	-5.329707	-3.419729
					CHANNELS 3 Zrotation Xrotation Yrotation
					End Site
					{
						OFFSET	0.327567	-0.000003	16.505428
					}
				}
			}
		}
	}
	JOINT RightUpLeg
	{
		OFFSET	-12.811937	-7.635976	0.557276
		CHANNELS 3 Zrotation Xrotation Yrotation
		JOINT RightLeg
		{
			OFFSET	0.429270	-42.206159	-1.204951
			CHANNELS 3 Zrotation Xrotation Yrotation
			JOINT RightFoot
			{
				OFFSET	2.112259	-42.464481	-3.973220
				CHANNELS 3 Zrotation Xrotation Yrotation
				JOINT RightFootHeel
				{
					OFFSET	-0.387198	-5.329707	-3.419729
					CHANNELS 3 Zrotation Xrotation Yrotation
					End Site
					{
						OFFSET	-0.327566	-0.000003	16.505428
					}
				}
			}
		}
	}
	JOINT Spine
	{
		OFFSET	0.000000	13.731315	-1.007646
		CHANNELS 3 Zrotation Xrotation Yrotation
		JOINT Spine1
		{
			OFFSET	0.000000	12.091746	-0.604589
			CHANNELS 3 Zrotation Xrotation Yrotation
			JOINT LeftShoulder
			{
				OFFSET	5.746115	20.990027	-0.833816
				CHANNELS 3 Zrotation Xrotation Yrotation
				JOINT LeftArm
				{
					OFFSET	10.881538	-1.359258	0.219250
					CHANNELS 3 Zrotation Xrotation Yrotation
					JOINT LeftForeArm
					{
						OFFSET	4.390314	-31.537147	0.202818
						CHANNELS 3 Zrotation Xrotation Yrotation
						JOINT LeftHand
						{
							OFFSET	3.168650	-24.865023	5.373370
							CHANNELS 3 Zrotation Xrotation Yrotation
							End Site
							{
								OFFSET	1.457528	-10.806075	2.170267
							}
						}
					}
				}
			}
			JOINT RightShoulder
			{
				OFFSET	-5.746115	20.990027	-0.833816
				CHANNELS 3 Zrotation Xrotation Yrotation
				JOINT RightArm
				{
					OFFSET	-10.881538	-1.359258	0.219250
					CHANNELS 3 Zrotation Xrotation Yrotation
					JOINT RightForeArm
					{
						OFFSET	-4.390314	-31.537147	0.202818
						CHANNELS 3 Zrotation Xrotation Yrotation
						JOINT RightHand
						{
							OFFSET	-3.168650	-24.865023	5.373370
							CHANNELS 3 Zrotation Xrotation Yrotation
							End Site
							{
								OFFSET	-1.457528	-10.806075	2.170267
							}
						}
					}
				}
			}
			JOINT Neck
			{
				OFFSET	0.000000	27.075639	0.680489
				CHANNELS 3 Zrotation Xrotation Yrotation
				JOINT Head
				{
					OFFSET	0.000000	12.391287	1.239129
					CHANNELS 3 Zrotation Xrotation Yrotation
					End Site
					{
						OFFSET	0.000000	13.818691	-0.105853
					}
				}
			}
		}
	}
}
MOTION
Frames:    9
Frame Time: 0.016667
2.929235	99.979574	-5.914217	2.320537	-3.462623	8.181974	-2.193461	4.631347	0.887481	-0.365325	-3.120796	-1.359704	-0.839300	2.810814	-5.736167	0.	0.	0.	-7.991332	-3.290042	-8.402296	-4.438849	14.283956	4.202448	9.808043	-4.324084	6.987772	0.	0.	0.	0.000000	-0.000000	0.000000	-7.408192	15.167809	3.222680	5.409851	1.979817	-4.268852	71.372765	-28.146954	20.793577	95.281532	-130.506042	88.031471	4.859419	-34.983829	-71.918007	-1.886343	4.389064	-0.732218	-6.729384	1.727678	7.317796	2.521889	-8.964554	7.635396	-2.627146	-3.729207	5.209545	-4.429010	15.883072	17.636780	-8.697338	4.931048	17.165340	
2.866260	99.988372	-5.954138	2.262218	-3.428637	7.903233	-2.125194	4.586171	1.248675	-0.368810	-3.124694	-1.427722	-0.736252	2.840986	-5.762327	0.	0.	0.	-8.057285	-3.304729	-7.943741	-4.052413	14.028895	3.442065	9.906595	-3.932980	7.482749	0.	0.	0.	-0.000000	-0.000000	-0.000001	-7.682874	14.959752	2.939224	5.487178	2.027542	-4.576375	71.933586	-30.612125	21.901468	96.290871	-129.854858	88.282990	2.101295	-34.755878	-74.934303	-1.808371	4.264435	-0.685294	-6.406839	1.088667	8.215444	2.612408	-9.141732	7.764477	-2.282314	-4.354322	4.039173	-4.567616	15.756999	17.430004	-8.945321	4.853282	16.839239	
2.809251	99.993352	-5.990440	2.214267	-3.434116	7.629514	-2.062421	4.575587	1.558471	-0.363744	-3.099646	-1.444559	-0.699609	2.822022	-5.804004	0.	0.	0.	-8.128759	-3.293343	-7.570391	-3.742318	13.796940	2.761298	9.961720	-3.600831	7.971223	0.	0.	0.	-0.000000	-0.000000	0.000002	-7.870547	14.780275	2.633501	5.548874	2.143453	-4.784029	72.463165	-33.131153	22.942446	97.750793	-129.453049	88.904808	0.435834	-34.909500	-76.322174	-1.774199	4.198505	-0.676274	-6.056493	0.433828	9.043317	2.669414	-9.289969	7.708386	-1.860154	-4.791903	3.410528	-4.859345	15.521744	17.286171	-9.091596	4.769613	16.402533	
2.816891	100.000678	-6.023548	2.160306	-3.474845	7.357084	-2.032834	4.615036	1.828319	-0.350987	-3.086287	-1.442597	-0.704594	2.792576	-5.804299	0.	0.	0.	-8.143153	-3.259614	-7.411932	-3.587569	13.585740	2.507552	9.903246	-3.363374	8.277644	0.	0.	0.	0.000000	0.000000	0.000000	-8.025231	14.626391	2.324221	5.565049	2.265969	-5.000386	73.152138	-35.441750	23.963528	98.986176	-129.378662	89.858696	-0.154113	-34.397533	-76.837830	-1.753437	4.157545	-0.718377	-5.736403	-0.166358	9.845716	2.746532	-9.458389	7.516587	-1.424142	-5.027813	3.113592	-5.017272	15.268543	17.063410	-9.431769	4.661902	16.004036	
2.818487	100.004689	-6.042616	2.133281	-3.508945	7.218607	-2.016805	4.646778	1.949520	-0.343530	-3.078176	-1.425120	-0.683733	2.786102	-5.806204	0.	0.	0.	-8.118104	-3.230459	-7.415689	-3.564387	13.488433	2.548702	9.909325	-3.266605	8.351538	0.	0.	0.	-0.000000	-0.000000	0.000001	-8.095345	14.561496	2.171980	5.576325	2.318369	-5.104193	73.516693	-36.482788	24.443634	-80.612953	-50.618885	-89.654259	-0.199953	-33.807121	-77.021133	-1.737603	4.136672	-0.754864	-5.594437	-0.444165	10.227013	2.806800	-9.551315	7.412470	-1.228825	-5.069197	3.037045	-5.049060	15.121926	16.916838	-9.607170	4.601797	15.828595	
2.820076	100.019233	-6.092044	2.045998	-3.541055	6.928761	-1.947006	4.659143	2.138294	-0.338281	-3.057242	-1.346743	-0.648659	2.771671	-5.807683	0.	0.	0.	-7.968109	-3.176277	-7.507653	-3.631295	13.269501	2.794978	9.842389	-3.136947	8.476374	0.	0.	0.	0.000000	-0.000000	0.000000	-8.208480	14.384715	1.876687	5.620445	2.397661	-5.281547	74.210815	-38.317612	25.292255	-80.230270	-50.721371	-89.017395	-0.226449	-32.215759	-77.361168	-1.693356	4.104163	-0.831632	-5.345839	-0.955611	10.935831	2.976682	-9.773091	7.266901	-0.924568	-5.012634	2.869701	-5.094356	14.783248	16.567719	-9.851628	4.486057	15.505042	
2.854141	100.033960	-6.122163	1.943662	-3.561394	6.605445	-1.890907	4.698700	2.295594	-0.328099	-3.083921	-1.289313	-0.595835	2.760225	-5.731873	0.	0.	0.	-7.780176	-3.121464	-7.555983	-3.775118	13.039697	3.049453	9.798877	-3.062444	8.589252	0.	0.	0.	0.000000	0.000000	-0.000000	-8.318319	14.123976	1.362862	5.678322	2.581473	-5.145891	74.858589	-39.877712	26.006855	-80.192146	-51.080452	-88.843910	-0.573955	-30.818890	-77.692505	-1.641170	4.077080	-0.952333	-5.051731	-1.595315	11.874307	3.266052	-10.225795	7.277147	-0.679660	-4.751068	2.443582	-5.209077	14.254354	15.996436	-10.022748	4.471679	15.688567	
2.945314	100.042254	-6.114985	1.807458	-3.524097	6.063870	-1.871809	4.709509	2.454461	-0.293159	-3.080942	-1.102904	-0.509994	2.655782	-5.561835	0.	0.	0.	-7.501866	-3.146970	-7.503796	-4.047488	12.795604	3.355263	9.766183	-3.025385	8.755355	0.	0.	0.	0.000000	-0.000000	-0.000001	-8.349644	13.840479	1.404283	5.692368	2.719236	-5.501966	75.638283	-42.035549	27.066992	-80.127373	-51.625526	-89.107613	-1.241512	-30.348082	-77.662910	-1.644284	4.067732	-1.047021	-4.909750	-1.895306	12.350236	3.475200	-10.582174	7.430782	-0.853271	-4.544257	2.376004	-5.286849	13.926745	15.607061	-10.374250	4.157628	14.661898	
2.990141	100.037216	-6.109862	1.783517	-3.517843	5.871331	-1.897324	4.726038	2.486191	-0.284254	-3.078850	-1.014087	-0.461061	2.608530	-5.497559	0.	0.	0.	-7.376355	-3.131932	-7.458248	-4.196722	12.710461	3.426499	9.775036	-3.028486	8.834430	0.	0.	0.	-0.000000	-0.000000	0.000001	-8.386184	13.723547	1.370719	5.711585	2.836246	-5.499367	75.876755	-42.737576	27.507633	-80.085411	-51.639084	-89.233757	-1.232047	-30.577942	-77.405617	-1.650162	4.067920	-1.089964	-4.843876	-2.010964	12.551915	3.574442	-10.742382	7.553118	-1.126165	-4.406911	2.533909	-5.310036	13.780767	15.424135	-10.478956	4.099246	14.491517	
